<?xml version="1.0" encoding="UTF-8"?>
<svg id="Layer_1" data-name="Layer 1" xmlns="http://www.w3.org/2000/svg" viewBox="0 0 64.74 95.99">
  <defs>
    <style>
      .cls-1 {
        fill: #ebe7db;
      }
    </style>
  </defs>
  <path class="cls-1" d="M15.13,46.85L61.5,.41c.63-.63,1.78-.51,2.56,.27h0c.78,.78,.9,1.93,.27,2.56L17.97,49.68c-.63,.63-1.78,.51-2.56-.27h0c-.78-.78-.9-1.93-.27-2.56Z"/>
  <path class="cls-1" d="M64.06,95.32h0c-.78,.78-1.93,.9-2.56,.27L15.13,49.14c-.63-.63-.51-1.78,.27-2.56h0c.78-.78,1.93-.9,2.56-.27l46.37,46.44c.63,.63,.51,1.78-.27,2.56Z"/>
</svg>